<svg aria-hidden="true" style="position: absolute; width: 0; height: 0; overflow: hidden;" version="1.1" xmlns="http://www.w3.org/2000/svg" xmlns:xlink="http://www.w3.org/1999/xlink">
<defs>
<symbol id="icon-Vector" viewBox="0 0 28 32">
<path d="M3.113 31c-0.543-0.001-1.051-0.147-1.488-0.401l0.014 0.008c-1.011-0.573-1.639-1.685-1.639-2.892v-24.429c0-1.21 0.628-2.319 1.639-2.892 0.423-0.248 0.932-0.394 1.475-0.394 0.569 0 1.1 0.16 1.551 0.439l-0.013-0.007 20.879 12.498c0.859 0.545 1.422 1.491 1.422 2.569 0 0 0 0 0 0.001v-0c-0 1.078-0.562 2.024-1.409 2.562l-0.012 0.007-20.882 12.501c-0.438 0.269-0.968 0.429-1.535 0.431h-0.001z"></path>
</symbol>
</defs>
</svg>
