<svg aria-hidden="true" style="position: absolute; width: 0; height: 0; overflow: hidden;" version="1.1" xmlns="http://www.w3.org/2000/svg" xmlns:xlink="http://www.w3.org/1999/xlink">
<defs>
<symbol id="icon-letter" viewBox="0 0 37 32">
<path d="M30.475 0h-24.379c-1.615 0.004-3.163 0.568-4.305 1.567s-1.786 2.354-1.791 3.767v21.332c0 2.936 2.743 5.334 6.096 5.334h24.379c1.616-0.004 3.164-0.567 4.306-1.566s1.786-2.354 1.79-3.768v-21.332c0-2.934-2.743-5.334-6.096-5.334zM6.523 27.708l-2.759-2.414 9.143-8 1.045 0.914zM5.477 6.208l1.045-0.914 11.762 8.292 11.762-8.292 1.045 0.914-12.809 13.208-12.809-13.208zM30.048 27.708l-7.429-9.5 1.045-0.914 9.143 8z"></path>
</symbol>
<symbol id="icon-location" viewBox="0 0 20 32">
<path d="M10 0c-5.523 0-10 4.477-10 10v0c0 10 10 22 10 22s10-12 10-22c0-5.523-4.477-10-10-10v0zM10 16c-3.314 0-6-2.686-6-6s2.686-6 6-6v0c3.314 0 6 2.686 6 6s-2.686 6-6 6v0z"></path>
</symbol>
<symbol id="icon-phone" viewBox="0 0 32 32">
<path d="M23.467 19.2c-2.133 2.133-2.133 4.267-4.267 4.267s-4.267-2.133-6.4-4.267-4.267-4.267-4.267-6.4 2.133-2.133 4.267-4.267-4.267-8.533-6.4-8.533-6.4 6.4-6.4 6.4c0 4.267 4.384 12.917 8.533 17.067s12.8 8.533 17.067 8.533c0 0 6.4-4.267 6.4-6.4s-6.4-8.533-8.533-6.4z"></path>
</symbol>
<symbol id="icon-la_telegram-plane" viewBox="0 0 32 32">
<path fill="#f2f2f2" style="fill: var(--color1, #f2f2f2)" d="M26.070 3.996c-0.342 0.026-0.659 0.105-0.952 0.23l0.019-0.007h-0.004c-0.285 0.113-1.64 0.683-3.7 1.547l-7.382 3.109c-5.297 2.23-10.504 4.426-10.504 4.426l0.062-0.024s-0.359 0.118-0.734 0.375c-0.234 0.15-0.429 0.339-0.581 0.56l-0.004 0.007c-0.184 0.27-0.332 0.683-0.277 1.11 0.090 0.722 0.558 1.155 0.894 1.394 0.34 0.242 0.664 0.355 0.664 0.355h0.008l4.883 1.645c0.219 0.703 1.488 4.875 1.793 5.836 0.18 0.574 0.355 0.933 0.574 1.207 0.106 0.14 0.23 0.257 0.379 0.351 0.078 0.045 0.16 0.081 0.246 0.106l-0.050-0.012c0.015 0.004 0.027 0.016 0.038 0.020 0.040 0.011 0.067 0.015 0.118 0.023 0.773 0.234 1.394-0.246 1.394-0.246l0.035-0.028 2.883-2.625 4.832 3.707 0.11 0.047c1.007 0.442 2.027 0.196 2.566-0.238 0.543-0.437 0.754-0.996 0.754-0.996l0.035-0.090 3.734-19.129c0.106-0.472 0.133-0.914 0.016-1.343-0.126-0.443-0.404-0.808-0.774-1.043l-0.007-0.004c-0.277-0.171-0.613-0.272-0.972-0.272-0.033 0-0.066 0.001-0.099 0.003l0.005-0zM25.969 6.046c-0.004 0.063 0.008 0.056-0.020 0.177v0.011l-3.699 18.93c-0.016 0.027-0.043 0.086-0.117 0.145-0.078 0.062-0.14 0.101-0.465-0.028l-5.91-4.531-3.57 3.254 0.75-4.79 9.656-9c0.398-0.37 0.265-0.448 0.265-0.448 0.028-0.454-0.601-0.133-0.601-0.133l-12.176 7.543-0.004-0.020-5.851-1.972c0.012-0.004 0.022-0.008 0.032-0.013l-0.001 0.001 0.032-0.016 0.031-0.011s5.211-2.196 10.508-4.426c2.652-1.117 5.324-2.242 7.379-3.11 2.055-0.863 3.574-1.496 3.66-1.53 0.082-0.032 0.043-0.032 0.102-0.032z"></path>
</symbol>
</defs>
</svg>
