<svg xmlns="http://www.w3.org/2000/svg" width="26" height="26" fill="none">
  <path fill="#f2f2f2" d="M21.1819 3.2468a2.42 2.42 0 0 0-.7581.1812h-.0032c-.2316.0918-1.3325.555-3.0063 1.257l-5.9979 2.526c-4.3038 1.8119-8.5345 3.5961-8.5345 3.5961l.0504-.0195s-.2917.0959-.5964.3047a1.65 1.65 0 0 0-.476.4607c-.1496.2194-.2698.5549-.2252.9019.0732.5866.4534.9384.7264 1.1326.2763.1966.5395.2884.5395.2884h.0065l3.9675 1.3366c.178.5712 1.209 3.9609 1.4568 4.7418.1462.4663.2884.758.4664.9806.086.1138.1868.2089.3079.2852.063.0366.13.0656.1999.0862l-.0407-.0098c.0122.0033.022.013.031.0163.0324.0089.0544.0121.0958.0186.6281.1902 1.1326-.1998 1.1326-.1998l.0285-.0228 2.3424-2.1328 3.926 3.0119.0894.0382c.8182.3592 1.6469.1593 2.0848-.1933.4412-.3551.6127-.8093.6127-.8093l.0284-.0731 3.0339-15.5423c.0861-.3835.108-.7427.013-1.0912a1.468 1.468 0 0 0-.6346-.8507 1.52 1.52 0 0 0-.8669-.2194m-.0821 1.6656c-.0032.0512.0065.0455-.0162.1439v.0089l-3.0055 15.3806c-.013.022-.0349.0699-.095.1178-.0634.0504-.1138.0821-.3778-.0227l-4.8019-3.6815-2.9007 2.6439.6094-3.8919 7.8455-7.3125c.3234-.3006.2153-.364.2153-.364.0228-.3688-.4883-.108-.4883-.108l-9.893 6.1287-.0032-.0163-4.7418-1.5965v-.0033l-.0122-.0024a.2.2 0 0 0 .0244-.0098l.026-.013.0252-.0089s4.234-1.7843 8.5378-3.5961c2.1547-.9076 4.3257-1.8217 5.9954-2.527 1.6697-.7011 2.9039-1.2154 2.9737-1.243.0667-.026.035-.026.0829-.026z"/>
</svg>
